<svg aria-hidden="true" style="position:absolute;width:0;height:0" xmlns="http://www.w3.org/2000/svg" overflow="hidden">
    <defs>
    <!-- SOCIAL MEDIA ICONS -->

    <!-- FB -->
    <symbol id="facebook" viewBox="0 0 16 16">
    <path d="M10.66 2.66h1.47V.1C11.87.08 11 0 10 0 7.9 0 6.45 1.32 6.45 3.76V6H4.12v2.84h2.33V16H9.3V8.84h2.23L11.88 6H9.3V4.04c0-.82.22-1.38 1.36-1.38Z"/>
    </symbol>
    
    <!-- IG -->
    <symbol id="instagram" viewBox="0 0 32 32">
<path d="M31.969 9.408c-0.075-1.7-0.35-2.869-0.744-3.882-0.406-1.075-1.031-2.038-1.85-2.838-0.8-0.813-1.769-1.444-2.832-1.844-1.019-0.394-2.182-0.669-3.882-0.744-1.713-0.081-2.257-0.1-6.601-0.1s-4.888 0.019-6.595 0.094c-1.7 0.075-2.869 0.35-3.882 0.744-1.075 0.406-2.038 1.031-2.838 1.85-0.813 0.8-1.444 1.769-1.844 2.832-0.394 1.019-0.669 2.182-0.744 3.882-0.081 1.713-0.1 2.257-0.1 6.601s0.019 4.888 0.094 6.595c0.075 1.7 0.35 2.869 0.744 3.882 0.406 1.075 1.038 2.038 1.85 2.838 0.8 0.813 1.769 1.444 2.832 1.844 1.019 0.394 2.182 0.669 3.882 0.744 1.706 0.075 2.25 0.094 6.595 0.094s4.888-0.019 6.595-0.094c1.7-0.075 2.869-0.35 3.882-0.744 2.151-0.831 3.851-2.532 4.682-4.682 0.394-1.019 0.669-2.182 0.744-3.882 0.075-1.707 0.094-2.25 0.094-6.595s-0.006-4.888-0.081-6.595zM29.087 22.473c-0.069 1.563-0.331 2.407-0.55 2.969-0.538 1.394-1.644 2.5-3.038 3.038-0.563 0.219-1.413 0.481-2.969 0.55-1.688 0.075-2.194 0.094-6.464 0.094s-4.782-0.019-6.464-0.094c-1.563-0.069-2.407-0.331-2.969-0.55-0.694-0.256-1.325-0.663-1.838-1.194-0.531-0.519-0.938-1.144-1.194-1.838-0.219-0.563-0.481-1.413-0.55-2.969-0.075-1.688-0.094-2.194-0.094-6.464s0.019-4.782 0.094-6.464c0.069-1.563 0.331-2.407 0.55-2.969 0.256-0.694 0.663-1.325 1.2-1.838 0.519-0.531 1.144-0.938 1.838-1.194 0.563-0.219 1.413-0.481 2.969-0.55 1.688-0.075 2.194-0.094 6.464-0.094 4.276 0 4.782 0.019 6.464 0.094 1.563 0.069 2.407 0.331 2.969 0.55 0.694 0.256 1.325 0.662 1.838 1.194 0.531 0.519 0.938 1.144 1.194 1.838 0.219 0.563 0.481 1.413 0.55 2.969 0.075 1.688 0.094 2.194 0.094 6.464s-0.019 4.77-0.094 6.458z"></path>
<path d="M16.059 7.783c-4.538 0-8.22 3.682-8.22 8.22s3.682 8.22 8.22 8.22c4.538 0 8.22-3.682 8.22-8.22s-3.682-8.22-8.22-8.22zM16.059 21.335c-2.944 0-5.332-2.388-5.332-5.332s2.388-5.332 5.332-5.332c2.944 0 5.332 2.388 5.332 5.332s-2.388 5.332-5.332 5.332z"></path>
<path d="M26.524 7.458c0 1.060-0.859 1.919-1.919 1.919s-1.919-0.859-1.919-1.919c0-1.060 0.859-1.919 1.919-1.919s1.919 0.859 1.919 1.919z"></path>
</symbol>

<!-- Twitter -->
<symbol id="twitter" viewBox="0 0 32 32">
<path d="M32 6.078c-1.19 0.522-2.458 0.868-3.78 1.036 1.36-0.812 2.398-2.088 2.886-3.626-1.268 0.756-2.668 1.29-4.16 1.588-1.204-1.282-2.92-2.076-4.792-2.076-3.632 0-6.556 2.948-6.556 6.562 0 0.52 0.044 1.020 0.152 1.496-5.454-0.266-10.28-2.88-13.522-6.862-0.566 0.982-0.898 2.106-0.898 3.316 0 2.272 1.17 4.286 2.914 5.452-1.054-0.020-2.088-0.326-2.964-0.808 0 0.020 0 0.046 0 0.072 0 3.188 2.274 5.836 5.256 6.446-0.534 0.146-1.116 0.216-1.72 0.216-0.42 0-0.844-0.024-1.242-0.112 0.85 2.598 3.262 4.508 6.13 4.57-2.232 1.746-5.066 2.798-8.134 2.798-0.538 0-1.054-0.024-1.57-0.090 2.906 1.874 6.35 2.944 10.064 2.944 12.072 0 18.672-10 18.672-18.668 0-0.29-0.010-0.57-0.024-0.848 1.302-0.924 2.396-2.078 3.288-3.406z"></path>
</symbol>

<!-- LinkedIn -->
    <symbol id="linkedin" viewBox="0 0 32 32">
<path d="M31.992 32v-0.001h0.008v-11.736c0-5.741-1.236-10.164-7.948-10.164-3.227 0-5.392 1.771-6.276 3.449h-0.093v-2.913h-6.364v21.364h6.627v-10.579c0-2.785 0.528-5.479 3.977-5.479 3.399 0 3.449 3.179 3.449 5.657v10.401h6.62z"></path>
<path d="M0.528 10.636h6.635v21.364h-6.635v-21.364z"></path>
<path d="M3.843-0c-2.121 0-3.843 1.721-3.843 3.843s1.721 3.879 3.843 3.879c2.121 0 3.843-1.757 3.843-3.879-0.001-2.121-1.723-3.843-3.843-3.843v0z"></path>
</symbol>
    </defs>


<!--BENEFITS ICONS  -->

<!-- Antenna -->
<symbol id="antenna" viewBox="0 0 64 64">
<path fill="#2E2F42" d="M61.55 44.2 44.66 27.19l1.87-9.24a4 4 0 0 0 1.52.3h.01a4.32 4.32 0 1 0-4.01-2.88l-9.92 1.22L17.95.32a1.07 1.07 0 0 0-1.5-.01l-3.03 3c-.42.42-.42 1.1 0 1.52l1.63 1.65a29.88 29.88 0 0 0 5.04 35.32c.08.09.18.15.29.2-.07.36-.1.73-.1 1.1v12.37H7.47a5.34 5.34 0 0 0-5.34 5.33v2.13c0 .6.48 1.07 1.07 1.07h49.06c.6 0 1.07-.48 1.07-1.07V60.8A5.34 5.34 0 0 0 48 55.47H35.2v-5.49a29.7 29.7 0 0 0 20.18-2.93l1.63 1.65a1.07 1.07 0 0 0 1.5.02l3.03-3.02c.41-.41.41-1.09 0-1.5ZM46.56 12.47a2.13 2.13 0 1 1 1.5 3.64 2.13 2.13 0 0 1-1.5-3.64Zm-2.51 7-1.2 5.9L40.5 23l3.55-3.52Zm-1.21-1.8L39 21.5l-2.97-2.99 6.8-.83ZM48 57.6a3.2 3.2 0 0 1 3.2 3.2v1.07H4.27V60.8a3.2 3.2 0 0 1 3.2-3.2h40.54Zm-14.94-4.27v2.14H22.41v-2.14h10.66ZM22.41 51.2v-8.1c0-2.6 2.4-4.7 5.33-4.7 2.94 0 5.33 2.1 5.33 4.7v8.1H22.41Zm12.8-3.4v-4.7c0-3.77-3.35-6.83-7.47-6.83a7.6 7.6 0 0 0-6.56 3.57 27.74 27.74 0 0 1-4.56-31.78l37.2 37.42a27.64 27.64 0 0 1-18.61 2.33Zm22.58-1.36-1.5-1.51-39.1-39.34-1.52-1.51 1.51-1.5 15.87 15.95.02.02L59.3 44.94l-1.51 1.5Z"/>
  <path fill="#4D5AE5" d="M27.75 40.53a3.2 3.2 0 0 0-.02 6.4h.01a3.2 3.2 0 0 0 .01-6.4Zm.75 3.96a1.07 1.07 0 1 1-.76-1.82 1.07 1.07 0 0 1 .75 1.82Z"/>
  </symbol>

<!-- Clock -->
  <symbol id="clock" viewBox="0 0 64 64">
      <path fill="#2E2F42" d="M62.6 30.6a30.6 30.6 0 1 0-39.93 29.17 1.35 1.35 0 0 0 1.06-.13c.27-.16.47-.42.57-.72l7.73-24.5a3.83 3.83 0 1 0-1.68-7.26L20.14 16.94a1.28 1.28 0 0 0-1.8 1.8l10.2 10.22a3.75 3.75 0 0 0 1.07 4.62l-7.36 23.35a28.09 28.09 0 1 1 21.14-.7l-.8-3.75a1.27 1.27 0 0 0-2.1-.69l-7.67 6.85a1.27 1.27 0 0 0 .46 2.17l9.8 3.13a1.27 1.27 0 0 0 1.64-1.48l-.78-3.68A30.5 30.5 0 0 0 62.59 30.6Zm-30.62-1.27a1.28 1.28 0 1 1 0 2.55 1.28 1.28 0 0 1 0-2.55Zm4.2 29.73 4.37-3.9 1.2 5.68-5.56-1.78Z"/>
    <path fill="#4D5AE5" d="M30.7 6.37v2.55a1.28 1.28 0 1 0 2.56 0V6.37a1.28 1.28 0 0 0-2.55 0ZM7.75 29.33a1.28 1.28 0 0 0 0 2.55h2.55a1.28 1.28 0 1 0 0-2.55H7.75Zm48.47 2.55a1.28 1.28 0 1 0 0-2.55h-2.55a1.28 1.28 0 0 0 0 2.55h2.55Z"/>
  </symbol>

<!-- Diagram -->
<symbol id="diagram" viewBox="0 0 64 64">
     <path fill="#4D5AE5" d="M29.85 29.93h2.13v9.6h-2.13v-9.6Zm8.53 4.27h2.13v5.32h-2.13V34.2Zm-17.06 3.2h2.13v2.12h-2.13V37.4Zm-6.39-1.07h2.13v3.2h-2.13v-3.2Z"/>
    <path fill="#2E2F42" d="M3.2 56.58h51.17a3.2 3.2 0 0 0 3.2-3.2v-4.26a3.2 3.2 0 0 0-3.2-3.2h-1.06V19.33l6.05-5.73a3.22 3.22 0 1 0-1.5-1.53l-4.55 4.33v-2.46a3.2 3.2 0 0 0-3.2-3.2H7.46a3.2 3.2 0 0 0-3.2 3.2v31.98H3.2a3.2 3.2 0 0 0-3.2 3.2v4.26a3.2 3.2 0 0 0 3.2 3.2Zm57.57-46.9a1.07 1.07 0 1 1 0 2.13 1.07 1.07 0 0 1 0-2.14ZM6.4 13.93c0-.6.47-1.07 1.06-1.07h42.65c.59 0 1.06.48 1.06 1.07v4.47l-2.13 2.03v-4.37c0-.59-.48-1.07-1.07-1.07H9.6c-.58 0-1.06.48-1.06 1.07v26.65c0 .6.48 1.07 1.06 1.07h38.38c.6 0 1.07-.48 1.07-1.07V23.37l2.13-2.02v24.57H6.4V13.94ZM16 27.8a3.2 3.2 0 1 0 2.2 5.5l3.71 1.85c.43.22.95.12 1.27-.24l7.88-8.86 7.75 5.8c.41.3 1 .28 1.37-.08l6.73-6.38v16.27H10.66V17.14h36.25v5.32l-7.54 7.14-7.81-5.85a1.07 1.07 0 0 0-1.44.14l-7.99 8.99-2.98-1.5.04-.38a3.2 3.2 0 0 0-3.2-3.2Zm1.06 3.2a1.07 1.07 0 1 1-2.13 0 1.07 1.07 0 0 1 2.13 0Zm6.4 17.05h10.66v1.07c0 .59-.48 1.07-1.07 1.07h-8.53c-.59 0-1.07-.48-1.07-1.07v-1.07ZM2.12 49.12c0-.59.48-1.07 1.07-1.07h18.12v1.07a3.2 3.2 0 0 0 3.2 3.2h8.53a3.2 3.2 0 0 0 3.2-3.2v-1.07h18.12c.59 0 1.07.48 1.07 1.07v4.26c0 .6-.48 1.07-1.07 1.07H3.2c-.59 0-1.07-.48-1.07-1.07v-4.26Z"/>
</symbol>

<!-- Astronaut -->
<symbol id="astronaut" viewBox="0 0 64 64">
    <path fill="#4D5AE5" d="M63.95 9.05a1.07 1.07 0 0 0-.86-.73l-3.82-.55-1.71-3.47c-.36-.73-1.56-.73-1.92 0l-1.7 3.47-3.83.55a1.07 1.07 0 0 0-.59 1.82l2.77 2.7-.66 3.8a1.07 1.07 0 0 0 1.55 1.13l3.42-1.8 3.42 1.8a1.07 1.07 0 0 0 1.55-1.13l-.66-3.8 2.77-2.7c.29-.28.4-.7.27-1.1Zm-4.93 2.65c-.25.25-.36.6-.3.95l.38 2.22-2-1.05a1.06 1.06 0 0 0-1 0l-2 1.05.38-2.22c.06-.35-.05-.7-.3-.95l-1.62-1.58 2.23-.32c.35-.05.65-.27.8-.59l1-2.02 1 2.02c.16.32.46.54.81.59l2.24.32-1.62 1.58Zm-6.75 29.34h-2.14v2.14h2.14v-2.14Zm0 4.27h-2.14v2.13h2.14v-2.13Zm2.13-2.13h-2.13v2.13h2.13v-2.13Zm-4.27 0H48v2.13h2.13v-2.13Zm-5.33 9.6h-2.13v2.13h2.13v-2.13Zm0 4.26h-2.13v2.14h2.13v-2.14Zm2.13-2.13H44.8v2.13h2.13v-2.13Zm-4.26 0h-2.14v2.13h2.14v-2.13ZM32 48.51h-2.13v2.13H32v-2.13Zm0 4.27h-2.13v2.13H32v-2.13Zm2.13-2.14H32v2.14h2.13v-2.14Zm-4.26 0h-2.14v2.14h2.14v-2.14Zm-18.14-38.4H9.6v2.14h2.13v-2.14Zm0 4.27H9.6v2.13h2.13v-2.13Zm2.14-2.13h-2.14v2.13h2.14v-2.13Zm-4.27 0H7.47v2.13H9.6v-2.13Z"/>
  <path fill="#2E2F42" d="M49.43 28.32a3.55 3.55 0 0 0-2.38-1.41 3.55 3.55 0 0 0-2.68.7l-2.5 1.92-3.8 2.84-2.71-1.08a13.87 13.87 0 0 0 8.23-12.64c0-7.65-6.25-13.87-13.93-13.87a13.91 13.91 0 0 0-13.92 13.87c0 2.77.83 5.34 2.24 7.51l-5.53-.05-.05.01c-.1 0-.21.03-.31.07l-.08.02c-.01 0-.03 0-.04.02L5.5 29.42l-3.78 1.82a3.56 3.56 0 0 0 3.55 6.18l2.77-1.47 4.53-2.34 2.71-.02L4.4 44.42 1.71 47.1a3.3 3.3 0 0 0 0 4.72 3.33 3.33 0 0 0 4.71 0l2.63-2.62 3.48-2.6 1.8 1.8-3.52 3.5-2.68 2.67a3.3 3.3 0 0 0 0 4.71 3.34 3.34 0 0 0 4.72 0l2.68-2.66 4.29-4.27 2.02-2-.01-.01.04-.03 10.34-11.32 6.94.99a1.01 1.01 0 0 0 .52-.07l.1-.04.12-.06 6.42-4.27c.03-.01.04-.04.06-.05.03-.02.06-.03.08-.06L49 33.05a3.56 3.56 0 0 0 .42-4.72ZM4.26 35.54c-.35.19-.74.22-1.12.1a1.43 1.43 0 0 1-.42-2.52l2.63-1.26.63 1.85.26.78-1.98 1.05Zm7-3.66-3.1 1.6L7.65 32l-.37-1.07 4.05-2-.07 2.96Zm30.2-13.24c0 1.84-.44 3.57-1.2 5.12l-8.37-3.8a3.72 3.72 0 0 0-1.57-2.77l2.92-9.72a11.76 11.76 0 0 1 8.21 11.17Zm-23.58 0A11.78 11.78 0 0 1 31.16 7.01l-2.87 9.51h-.11a3.74 3.74 0 0 0-3.75 3.72 3.74 3.74 0 0 0 6.98 1.85l7.73 3.5a11.78 11.78 0 0 1-21.26-6.95Zm11.9 1.6a1.6 1.6 0 0 1-3.22 0c0-.88.73-1.6 1.62-1.6.89 0 1.6.72 1.6 1.6ZM4.94 50.3a1.2 1.2 0 0 1-1.7 0 1.19 1.19 0 0 1 0-1.68l1.92-1.92 1.7 1.7-1.92 1.9Zm6.43 7.47c-.48.47-1.24.47-1.71 0a1.19 1.19 0 0 1 0-1.69l1.92-1.92.8.8.9.9-1.91 1.9Zm6.96-6.94-3.53 3.52-.8-.8-.9-.9 3.52-3.5c.08-.08.13-.18.18-.28l.06-.08c.03-.08.03-.17.05-.25l.02-.15a.65.65 0 0 0-.04-.2c0-.07 0-.14-.03-.2a1 1 0 0 0-.19-.28c-.02-.02-.02-.05-.05-.07l-3.21-3.2c-.04-.04-.08-.05-.12-.08a1.03 1.03 0 0 0-.17-.12 1 1 0 0 0-.19-.06 1.02 1.02 0 0 0-.2-.04h-.2l-.2.05a.99.99 0 0 0-.2.09c-.03.02-.08.03-.11.06l-3.55 2.64-1.8-1.8 4.8-4.76 8.72 8.57-1.86 1.84ZM31.96 36.8h-.1a1.04 1.04 0 0 0-.6.15l-.16.13-.08.06-9.4 10.29-8.65-8.52 5.67-5.63a1.07 1.07 0 0 0-.76-1.82l-4.44.02.05-3.21 6.21.05a13.9 13.9 0 0 0 12.52 3.96c.08.06.16.12.26.17l4.82 1.92.3 1.51.36 1.77-6-.85Zm8.08.35-.63-3.11 2.9-2.16.75 1 1.14 1.51-4.16 2.76Zm7.5-5.66-1.67 1.57-1.86-2.47 1.66-1.27a1.44 1.44 0 0 1 1.88 2.18Z"/>
  <path fill="#2E2F42" d="m27.2 37.09-4.28-4.27a1.07 1.07 0 0 0-1.5 0l-4.3 4.27a1.07 1.07 0 0 0 0 1.51l4.3 4.27a1.07 1.07 0 0 0 1.5 0l4.28-4.27a1.07 1.07 0 0 0 0-1.51Zm-5.03 3.52-2.78-2.77 2.78-2.76 2.77 2.76-2.77 2.77Zm12.16-30.47-.52 2.07c.15.04 3.48.9 3.48 4.3h2.13c0-4.03-3.33-5.93-5.1-6.37Zm5.09 8.5H37.3v2.14h2.13v-2.14Z"/>
</symbol>
</svg>